<svg id="Layer_1" data-name="Layer 1" xmlns="http://www.w3.org/2000/svg" viewBox="0 0 765.79 316"><defs><style>.cls-1{fill:#003149;}.cls-2{fill:#00c0ff;}.cls-3{fill:#ffd400;}.cls-4{fill:#20659a;}.cls-5{fill:#0b4a79;}</style></defs><polygon class="cls-1" points="768 260.8 734.38 316 765.79 316 768 312.37 768 260.8"/><polygon class="cls-1" points="768 155.49 673.29 0 641.88 0 762.61 198.21 760.98 200.9 690.87 316 722.28 316 768 240.94 768 155.49"/><polygon class="cls-1" points="586.28 0 0 0 0 316 635.26 316 707 198.21 586.28 0"/><polygon class="cls-1" points="629.79 0 598.38 0 719.1 198.21 717.47 200.9 647.36 316 678.77 316 750.51 198.21 629.79 0"/><polygon class="cls-1" points="768 84.06 716.8 0 685.39 0 768 135.63 768 84.06"/><polygon class="cls-1" points="728.9 0 768 64.19 768 12.62 760.31 0 728.9 0"/><polygon class="cls-2" points="768 135.63 685.39 0 673.29 0 768 155.49 768 135.63"/><polygon class="cls-2" points="768 240.94 722.28 316 734.38 316 768 260.8 768 240.94"/><polygon class="cls-3" points="762.61 198.21 641.88 0 629.79 0 750.51 198.21 678.77 316 690.87 316 760.98 200.9 762.61 198.21"/><polygon class="cls-4" points="716.8 0 768 84.06 768 64.19 728.9 0 716.8 0"/><polygon class="cls-5" points="719.1 198.21 598.38 0 586.28 0 707 198.21 635.26 316 647.36 316 717.47 200.9 719.1 198.21"/><polygon class="cls-1" points="760.31 0 768 12.62 768 0 760.31 0"/></svg>