<?xml version="1.0" encoding="UTF-8"?>
<svg width="48px" height="43px" viewBox="0 0 48 43" version="1.1" xmlns="http://www.w3.org/2000/svg" xmlns:xlink="http://www.w3.org/1999/xlink">
    <title>Icon</title>
    <g id="Modules" stroke="none" stroke-width="1" fill="none" fill-rule="evenodd">
        <g id="Modules-/-ðŸ–¥-Desktop-/-Horizontal-Cards-/-Image-Cards-/-3-Cards" transform="translate(-132.000000, -505.000000)" fill="#FAA51E">
            <g id="Cards" transform="translate(100.000000, 340.000000)">
                <g id="ðŸ–-Icon-Color" transform="translate(32.000000, 159.529412)">
                    <path d="M46.371,45 C47.1995,45 47.871,45.6715 47.871,46.5 C47.871,47.3285 47.1995,48 46.371,48 L46.371,48 L1.6285,48 C0.8005,48 0.1285,47.3285 0.1285,46.5 C0.1285,45.6715 0.8005,45 1.6285,45 L1.6285,45 Z M34.9403283,19.5 C35.9467954,19.5 36.7625378,20.4232816 36.7625378,21.5639677 L36.7625378,21.5639677 L36.7625378,39.9360323 C36.7625378,41.0760305 35.9467954,42 34.9403283,42 C33.9332539,42 33.1181188,41.0760305 33.1181188,39.9360323 L33.1181188,39.9360323 L33.1181188,23.6279354 L14.9069569,23.6279354 L14.9069569,39.9360323 C14.9069569,41.0760305 14.0912144,42 13.0847474,42 C12.0782803,42 11.2625378,41.0760305 11.2625378,39.9360323 L11.2625378,39.9360323 L11.2625378,21.5639677 C11.2625378,20.4232816 12.0782803,19.5 13.0847474,19.5 L13.0847474,19.5 Z M23.418831,6.12411639 C23.8020717,5.95862787 24.2232343,5.95862787 24.606475,6.12411639 L24.606475,6.12411639 L46.1323077,15.4083598 C47.02577,15.7933739 47.4842798,16.9578727 47.1567728,18.0082181 C46.9010874,18.8289061 46.2409021,19.33753 45.5381984,19.33753 C45.3411196,19.33753 45.1405933,19.2970022 44.9446637,19.2125692 L44.9446637,19.2125692 L43.2508201,18.4823934 L43.2508201,39.97361 C43.2508201,41.0928528 42.4791675,42 41.5270987,42 C40.5750299,42 39.8033773,41.0928528 39.8033773,39.97361 L39.8033773,39.97361 L39.8033773,16.9950231 L24.0129403,10.1850019 L8.22250322,16.9950231 L8.22250322,39.97361 C8.22250322,41.0928528 7.45027604,42 6.49878183,42 C5.54671305,42 4.77506044,41.0928528 4.77506044,39.97361 L4.77506044,39.97361 L4.77506044,18.4817179 L3.08064232,19.2125692 C2.18660549,19.5982588 1.19718942,19.0592391 0.868533205,18.0082181 C0.540451568,16.9578727 0.99953603,15.7933739 1.89299828,15.4083598 L1.89299828,15.4083598 Z"></path>
                </g>
            </g>
        </g>
    </g>
</svg>