<?xml version="1.0" encoding="UTF-8"?>
<svg width="48px" height="49px" viewBox="0 0 48 49" version="1.1" xmlns="http://www.w3.org/2000/svg" xmlns:xlink="http://www.w3.org/1999/xlink">
    <title>Icon</title>
    <g id="Modules" stroke="none" stroke-width="1" fill="none" fill-rule="evenodd">
        <g id="Modules-/-ðŸ–¥-Desktop-/-Horizontal-Cards-/-Image-Cards-/-3-Cards" transform="translate(-556.000000, -499.000000)" fill="#48A843">
            <g id="Cards" transform="translate(100.000000, 340.000000)">
                <g id="zMolecules-/-ðŸ–¥-Desktop-/-Image-Card-/Short-Image-/-Default-Copy" transform="translate(424.000000, 0.000000)">
                    <g id="ðŸ–-Icon-Color" transform="translate(32.000000, 159.529412)">
                        <path d="M46.371,44.973 C47.1995,44.973 47.871,45.6445 47.871,46.473 C47.871,47.302 47.1995,47.973 46.371,47.973 L46.371,47.973 L1.629,47.973 C0.8005,47.973 0.129,47.302 0.129,46.473 C0.129,45.6445 0.8005,44.973 1.629,44.973 L1.629,44.973 Z M16.1785,9.4455 C29.175,9.4455 31.698,13.2 32.072,13.9525 C32.175,14.16 32.2285,14.3885 32.2285,14.62 L32.2285,14.62 L32.2285,19.444 C32.2285,20.2725 31.557,20.944 30.7285,20.944 C29.9,20.944 29.2285,20.2725 29.2285,19.444 L29.2285,19.444 L29.2285,15.1525 C28.5,14.4755 25.533,12.4455 16.1785,12.4455 C6.7915,12.4455 3.7935,14.526 3.129,15.1265 L3.129,15.1265 L3.129,18.912 C5.3765,17.8135 9.317,16.767 16.1785,16.767 C19.3305,16.767 22.1115,16.99 24.443,17.43 C25.2575,17.5835 25.7925,18.368 25.639,19.182 C25.486,19.996 24.7015,20.53 23.887,20.378 C21.738,19.9725 19.1445,19.767 16.1785,19.767 C6.8175,19.767 3.855,21.7985 3.129,22.4745 L3.129,22.4745 L3.129,40.085 C3.129,40.9135 2.457,41.585 1.629,41.585 C0.8005,41.585 0.129,40.9135 0.129,40.085 L0.129,40.085 L0.129,14.62 C0.129,14.3885 0.1825,14.16 0.285,13.9525 C0.659,13.2 3.1825,9.4455 16.1785,9.4455 Z M46.371,24.015 C47.1995,24.015 47.871,24.6865 47.871,25.515 L47.871,25.515 L47.871,40.085 C47.871,40.9135 47.1995,41.585 46.371,41.585 C45.5425,41.585 44.871,40.9135 44.871,40.085 L44.871,40.085 L44.871,38.563 L9.267,38.563 L9.267,40.085 C9.267,40.9135 8.595,41.585 7.767,41.585 C6.9385,41.585 6.267,40.9135 6.267,40.085 L6.267,40.085 L6.267,25.515 C6.267,24.6865 6.9385,24.015 7.767,24.015 L7.767,24.015 Z M44.871,32.789 L9.267,32.789 L9.267,35.563 L44.871,35.563 L44.871,32.789 Z M44.871,27.015 L9.267,27.015 L9.267,29.789 L44.871,29.789 L44.871,27.015 Z M32.442,0.027 C40.4765,0.027 42.1065,2.766 42.3515,3.315 C42.4375,3.5075 42.482,3.716 42.482,3.9265 L42.482,3.9265 L42.482,19.444 C42.482,20.2725 41.8105,20.944 40.982,20.944 C40.1535,20.944 39.482,20.2725 39.482,19.444 L39.482,19.444 L39.482,4.4705 C38.9575,4.041 37.213,3.027 32.442,3.027 C27.671,3.027 25.927,4.041 25.4025,4.4705 L25.4025,4.4705 L25.4025,5.905 C25.4025,6.7335 24.7305,7.405 23.9025,7.405 C23.0735,7.405 22.4025,6.7335 22.4025,5.905 L22.4025,5.905 L22.4025,3.9265 C22.4025,3.716 22.447,3.5075 22.5325,3.315 C22.778,2.766 24.4075,0.027 32.442,0.027 Z"></path>
                    </g>
                </g>
            </g>
        </g>
    </g>
</svg>