<?xml version="1.0" encoding="UTF-8"?>
<svg width="48px" height="49px" viewBox="0 0 48 49" version="1.1" xmlns="http://www.w3.org/2000/svg" xmlns:xlink="http://www.w3.org/1999/xlink">
    <title>Icon</title>
    <g id="Modules" stroke="none" stroke-width="1" fill="none" fill-rule="evenodd">
        <g id="Modules-/-ðŸ–¥-Desktop-/-Horizontal-Cards-/-Image-Cards-/-3-Cards" transform="translate(-980.000000, -499.000000)" fill="#785FAA">
            <g id="Cards" transform="translate(100.000000, 340.000000)">
                <g id="zMolecules-/-ðŸ–¥-Desktop-/-Image-Card-/Short-Image-/-Default-Copy-2" transform="translate(848.000000, 0.000000)">
                    <g id="ðŸ–-Icon-Color" transform="translate(32.000000, 159.529412)">
                        <path d="M46.371,44.998 C47.1995,44.998 47.871,45.6695 47.871,46.498 C47.871,47.3265 47.1995,47.998 46.371,47.998 L46.371,47.998 L1.6285,47.998 C0.8005,47.998 0.1285,47.3265 0.1285,46.498 C0.1285,45.6695 0.8005,44.998 1.6285,44.998 L1.6285,44.998 Z M35.2115,0.159 C35.6325,-0.0505 36.1265,-0.0505 36.5475,0.159 L36.5475,0.159 L47.039,5.3765 C47.549,5.63 47.871,6.1505 47.871,6.7195 L47.871,6.7195 L47.871,40.11 C47.871,40.9385 47.1995,41.61 46.371,41.61 C45.5425,41.61 44.871,40.9385 44.871,40.11 L44.871,40.11 L44.871,7.649 L37.485,3.9755 L37.485,40.11 C37.485,40.9385 36.8135,41.61 35.985,41.61 C35.1565,41.61 34.485,40.9385 34.485,40.11 L34.485,40.11 L34.485,3.871 L26.8875,7.649 L26.8875,13.5155 C26.8875,14.3435 26.2165,15.0155 25.3875,15.0155 C24.559,15.0155 23.8875,14.3435 23.8875,13.5155 L23.8875,13.5155 L23.8875,6.7195 C23.8875,6.1505 24.21,5.63 24.7195,5.3765 L24.7195,5.3765 Z M28.637,38.61 C29.466,38.61 30.137,39.2815 30.137,40.11 C30.137,40.9385 29.466,41.61 28.637,41.61 L28.637,41.61 L1.6805,41.61 C0.8525,41.61 0.1805,40.9385 0.1805,40.11 C0.1805,39.2815 0.8525,38.61 1.6805,38.61 L1.6805,38.61 Z M4.93,25.428 C5.7585,25.428 6.43,26.0995 6.43,26.928 L6.43,26.928 L6.43,34.884 C6.43,35.7125 5.7585,36.384 4.93,36.384 C4.1015,36.384 3.43,35.7125 3.43,34.884 L3.43,34.884 L3.43,26.928 C3.43,26.0995 4.1015,25.428 4.93,25.428 Z M11.749,25.428 C12.5775,25.428 13.249,26.0995 13.249,26.928 L13.249,26.928 L13.249,34.884 C13.249,35.7125 12.5775,36.384 11.749,36.384 C10.921,36.384 10.249,35.7125 10.249,34.884 L10.249,34.884 L10.249,26.928 C10.249,26.0995 10.921,25.428 11.749,25.428 Z M25.3875,25.428 C26.2165,25.428 26.8875,26.0995 26.8875,26.928 L26.8875,26.928 L26.8875,34.884 C26.8875,35.7125 26.2165,36.384 25.3875,36.384 C24.559,36.384 23.8875,35.7125 23.8875,34.884 L23.8875,34.884 L23.8875,26.928 C23.8875,26.0995 24.559,25.428 25.3875,25.428 Z M18.5685,25.428 C19.3965,25.428 20.0685,26.0995 20.0685,26.928 L20.0685,26.928 L20.0685,34.884 C20.0685,35.7125 19.3965,36.384 18.5685,36.384 C17.74,36.384 17.0685,35.7125 17.0685,34.884 L17.0685,34.884 L17.0685,26.928 C17.0685,26.0995 17.74,25.428 18.5685,25.428 Z M14.506,14.9905 C14.9325,14.8575 15.403,14.858 15.847,14.9985 L15.847,14.9985 L28.583,18.8445 C29.661,19.1645 30.339,20.2365 30.1515,21.3355 C29.9805,22.411 29.0405,23.202 27.918,23.202 L27.918,23.202 L27.915,23.202 L2.3885,23.1605 C1.2705,23.159 0.332,22.3675 0.156,21.279 C-0.0175,20.178 0.665,19.114 1.742,18.799 L1.742,18.799 Z M15.162,17.9255 L7.642,20.169 L22.6725,20.1935 L15.162,17.9255 Z"></path>
                    </g>
                </g>
            </g>
        </g>
    </g>
</svg>