<?xml version="1.0" encoding="UTF-8"?>
<svg width="49px" height="48px" viewBox="0 0 49 48" version="1.1" xmlns="http://www.w3.org/2000/svg" xmlns:xlink="http://www.w3.org/1999/xlink">
    <!-- Generator: Sketch 64 (93537) - https://sketch.com -->
    <title>Icon - Strategy@1x</title>
    <desc>Created with Sketch.</desc>
    <g id="Symbols" stroke="none" stroke-width="1" fill="none" fill-rule="evenodd">
        <g id="VP2" transform="translate(-32.000000, -64.000000)" fill="#48A843">
            <g id="VP1">
                <g id="zAtom/Icons/SVB/Utility/Strategic-Advisory-Services_Playbook" transform="translate(32.000000, 64.000000)">
                    <g id="SVB_Icon_Utility_Strategic-Advisory-Services_Playbook_cmyk">
                        <path d="M16.0025,29.885 C16.5885,29.2995 17.5385,29.2995 18.124,29.885 C18.71,30.4705 18.71,31.421 18.124,32.0065 L18.124,32.0065 L11.472,38.658 L18.124,45.3105 C18.71,45.896 18.71,46.846 18.124,47.4315 C17.8315,47.7245 17.447,47.871 17.0635,47.871 C16.6795,47.871 16.2955,47.7245 16.0025,47.4315 L16.0025,47.4315 L9.351,40.78 L2.699,47.4315 C2.406,47.7245 2.022,47.871 1.6385,47.871 C1.2545,47.871 0.8705,47.7245 0.578,47.4315 C-0.008,46.846 -0.008,45.896 0.5775,45.3105 L0.5775,45.3105 L7.2295,38.658 L0.5775,32.0065 C-0.008,31.421 -0.008,30.4705 0.578,29.885 C1.1635,29.299 2.114,29.3 2.699,29.885 L2.699,29.885 L9.351,36.537 Z M19.7435,17.394 C20.4775,17.0095 21.3835,17.292 21.7685,18.026 C25.2405,24.649 32.0405,28.763 39.515,28.763 C40.226,28.763 40.9385,28.723 41.643,28.649 L41.643,28.649 L41.643,26.516 C41.643,25.9095 42.0085,25.363 42.5685,25.1305 C43.129,24.9 43.774,25.0265 44.2025,25.4545 L44.2025,25.4545 L47.6865,28.9315 C47.969,29.213 48.127,29.5945 48.127,29.993 C48.127,30.3915 47.9685,30.7735 47.6865,31.055 L47.6865,31.055 L44.2025,34.5315 C43.9155,34.818 43.5325,34.9695 43.1425,34.9695 C42.949,34.9695 42.754,34.932 42.5685,34.8555 C42.0085,34.623 41.643,34.076 41.643,33.4695 L41.643,33.4695 L41.643,31.6615 C40.937,31.7265 40.2255,31.763 39.515,31.763 C30.9215,31.763 23.103,27.033 19.1115,19.419 C18.727,18.6855 19.01,17.779 19.7435,17.394 Z M37.7935,0.3815 C43.159,0.3815 47.5245,4.7465 47.5245,10.1125 C47.5245,15.478 43.159,19.843 37.7935,19.843 C32.4275,19.843 28.0625,15.478 28.0625,10.1125 C28.0625,4.7465 32.4275,0.3815 37.7935,0.3815 Z M37.7935,3.3815 C34.082,3.3815 31.0625,6.401 31.0625,10.1125 C31.0625,13.8235 34.082,16.843 37.7935,16.843 C41.505,16.843 44.5245,13.8235 44.5245,10.1125 C44.5245,6.401 41.505,3.3815 37.7935,3.3815 Z M18.032,0.3815 C18.8605,0.386 19.5285,1.061 19.524,1.8895 C19.5125,3.984 19.506,4.8205 19.5015,5.3295 C19.4974286,5.85030357 19.4961199,6.02760459 19.4953861,6.86735015 L19.4944979,8.6135 C19.494,9.6275 19.5705,10.6475 19.7215,11.645 C19.8455,12.464 19.282,13.228 18.463,13.3525 C18.3865,13.364 18.311,13.3695 18.2365,13.3695 C17.5075,13.3695 16.8675,12.837 16.755,12.094 C16.5815,10.948 16.494,9.777 16.4944979,8.612 C16.4955,6.1 16.4955,6.0785 16.5015,5.3055 C16.506,4.7975 16.5125,3.963 16.524,1.8735 C16.5285,1.0475 17.199,0.3815 18.0235,0.3815 L18.0235,0.3815 Z" id="Combined-Shape"></path>
                    </g>
                </g>
            </g>
        </g>
    </g>
</svg>