<?xml version="1.0" encoding="UTF-8"?>
<svg width="48px" height="34px" viewBox="0 0 48 34" version="1.1" xmlns="http://www.w3.org/2000/svg" xmlns:xlink="http://www.w3.org/1999/xlink">
    <!-- Generator: Sketch 64 (93537) - https://sketch.com -->
    <title>Icon - People Group@1x</title>
    <desc>Created with Sketch.</desc>
    <g id="Symbols" stroke="none" stroke-width="1" fill="none" fill-rule="evenodd">
        <g id="VP3" transform="translate(-32.000000, -72.000000)" fill="#48A843">
            <g id="VP1">
                <g id="zAtom/Icons/Value-Props/User/Three-Users" transform="translate(32.000000, 64.000000)">
                    <path d="M45,20.675 C43.8499942,21.8250058 42.4500082,22.4 40.8,22.4 C39.1499917,22.4 37.7375059,21.8125059 36.5625,20.6375 C35.3874941,19.4624941 34.8,18.0500082 34.8,16.4 C34.8,14.7499918 35.3874941,13.3375059 36.5625,12.1625 C37.7375059,10.9874941 39.1499917,10.4 40.8,10.4 C42.4500082,10.4 43.8624941,10.9874941 45.0375,12.1625 C46.2125059,13.3375059 46.8,14.7499918 46.8,16.4 C46.8,18.0500082 46.200006,19.474994 45,20.675 Z M42.625782,14.923438 L42.45,14.75 C41.9999977,14.2499975 41.4500032,14 40.8,14 C40.1499967,14 39.5875024,14.2374976 39.1125,14.7125 C38.6374976,15.1875024 38.4,15.7499968 38.4,16.4 C38.4,17.0500032 38.6374976,17.6124976 39.1125,18.0875 C39.5875024,18.5625024 40.1499967,18.8 40.8,18.8 C41.4500032,18.8 42.0124976,18.5625024 42.4875,18.0875 C42.9625024,17.6124976 43.2,17.0500032 43.2,16.4 C43.2,15.8312472 43.0085957,15.3390635 42.625782,14.923438 L42.625782,14.923438 Z M11.4,20.675 C10.2499943,21.8250058 8.85000825,22.4 7.2,22.4 C5.54999175,22.4 4.13750588,21.8125059 2.9625,20.6375 C1.78749413,19.4624941 1.2,18.0500082 1.2,16.4 C1.2,14.7499918 1.78749413,13.3375059 2.9625,12.1625 C4.13750588,10.9874941 5.54999175,10.4 7.2,10.4 C8.85000825,10.4 10.2624941,10.9874941 11.4375,12.1625 C12.6125059,13.3375059 13.2,14.7499918 13.2,16.4 C13.2,18.0500082 12.600006,19.474994 11.4,20.675 Z M9.02578197,14.923438 L8.85,14.75 C8.39999775,14.2499975 7.85000325,14 7.2,14 C6.54999675,14 5.98750237,14.2374976 5.5125,14.7125 C5.03749762,15.1875024 4.8,15.7499968 4.8,16.4 C4.8,17.0500032 5.03749762,17.6124976 5.5125,18.0875 C5.98750237,18.5625024 6.54999675,18.8 7.2,18.8 C7.85000325,18.8 8.41249763,18.5625024 8.8875,18.0875 C9.36250237,17.6124976 9.6,17.0500032 9.6,16.4 C9.6,15.8312472 9.40859566,15.3390635 9.02578197,14.923438 L9.02578197,14.923438 Z M36.9,29.825 C37.900005,31.2750072 38.4,32.8749912 38.4,34.625 L38.4,38 C38.4,39.000005 38.0500035,39.8499965 37.35,40.55 C36.6499965,41.2500035 35.800005,41.6 34.8,41.6 L13.2,41.6 C12.199995,41.6 11.3500035,41.2500035 10.65,40.55 C9.9499965,39.8499965 9.6,39.000005 9.6,38 L9.6,34.625 C9.6,32.8749912 10.0749953,31.2750072 11.025,29.825 C12.0750053,28.3249925 13.4874911,27.2875029 15.2625,26.7125 C17.0375089,26.1374971 18.824991,26.1249972 20.625,26.675 C21.7250055,27.0250017 22.8374944,27.2 23.9625,27.2 C24.9000047,27.2 25.8461781,27.0784734 26.8010401,26.8354173 L27.375,26.675 C29.175009,26.1249972 30.9624911,26.1374971 32.7375,26.7125 C34.5125089,27.2875029 35.899995,28.3249925 36.9,29.825 Z M34.8,38 L34.8,34.625 C34.8,33.2749933 34.3250048,32.1125049 33.375,31.1375 C32.4249953,30.1624951 31.2750068,29.6500003 29.925,29.6 C27.9749903,30.4 26,30.8 24,30.8 C22,30.8 20.0250098,30.4 18.075,29.6 C16.7249933,29.6500003 15.5750048,30.1624951 14.625,31.1375 C13.6749953,32.1125049 13.2,33.2749933 13.2,34.625 L13.2,38 L34.8,38 Z M41.7,24.8 C42.5500043,24.8 43.3624961,24.9624984 44.1375,25.2875 C44.9125039,25.6125016 45.5874971,26.0624971 46.1625,26.6375 C46.7375029,27.2125029 47.1874984,27.8874961 47.5125,28.6625 C47.8375016,29.4375039 48,30.2499958 48,31.1 C48,31.6000025 47.8250017,32.0249983 47.475,32.375 C47.1249982,32.7250018 46.7000025,32.9 46.2,32.9 C45.6999975,32.9 45.2750018,32.7250018 44.925,32.375 C44.6249985,32.0749985 44.453571,31.7198994 44.4107142,31.3096946 L44.4,31.1 C44.4,30.3499963 44.1375026,29.7125026 43.6125,29.1875 C43.0874974,28.6624974 42.4500037,28.4 41.7,28.4 L39.9,28.4 C39.6499987,28.4 39.3500018,28.4499995 39,28.55 C38.2999965,27.549995 37.4250052,26.650004 36.375,25.85 C37.4250052,25.1499965 38.5999935,24.8 39.9,24.8 L41.7,24.8 Z M29.925,22.325 C28.2749917,23.9750083 26.3000115,24.8 24,24.8 C21.6999885,24.8 19.7250083,23.9750083 18.075,22.325 C16.4249918,20.6749917 15.6,18.7000115 15.6,16.4 C15.6,14.0999885 16.4249918,12.1250082 18.075,10.475 C19.7250083,8.82499175 21.6999885,8 24,8 C26.3000115,8 28.2749917,8.82499175 29.925,10.475 C31.5750083,12.1250082 32.4,14.0999885 32.4,16.4 C32.4,18.7000115 31.5750083,20.6749917 29.925,22.325 Z M27.375,13.025 C26.4249953,12.0749953 25.3000065,11.6 24,11.6 C22.7,11.6 21.5750048,12.0749953 20.625,13.025 C19.6749953,13.9750048 19.2,15.1 19.2,16.4 C19.2,17.7000065 19.6749953,18.8249953 20.625,19.775 C21.5750048,20.7250048 22.7,21.2 24,21.2 C25.3000065,21.2 26.4249953,20.7250048 27.375,19.775 C28.3250047,18.8249953 28.8,17.7000065 28.8,16.4 C28.8,15.1 28.3250047,13.9750048 27.375,13.025 Z M11.625,25.85 C10.5749947,26.650004 9.7000035,27.549995 9,28.55 C8.6999985,28.4499995 8.4000015,28.4 8.1,28.4 L6.3,28.4 C5.54999625,28.4 4.91250262,28.6624974 4.3875,29.1875 C3.9281227,29.6468773 3.66972599,30.1923805 3.61230458,30.8240225 L3.6,31.1 C3.6,31.6000025 3.42500175,32.0249983 3.075,32.375 C2.72499825,32.7250018 2.3000025,32.9 1.8,32.9 C1.2999975,32.9 0.87500175,32.7250018 0.525,32.375 C0.17499825,32.0249983 0,31.6000025 0,31.1 C0,29.3499913 0.612493875,27.8625061 1.8375,26.6375 C3.06250613,25.4124939 4.54999125,24.8 6.3,24.8 L8.1,24.8 C9.4000065,24.8 10.5749947,25.1499965 11.625,25.85 Z" id=""></path>
                </g>
            </g>
        </g>
    </g>
</svg>